# Blender v2.83.4 OBJ File: ''
# www.blender.org
o Cube_Cube.001
v -0.087619 0.015294 4.118433
v -0.087619 0.102217 4.279044
v -0.091035 0.102217 4.118433
v -0.087619 0.040753 4.232002
v -0.089591 0.052032 4.211162
v -0.090035 0.102217 4.232002
v -0.090035 0.040753 4.118433
v -0.087619 4.560004 4.279044
v -0.087619 4.646926 4.118433
v -0.091035 4.560004 4.118433
v -0.087619 4.621468 4.232002
v -0.089591 4.610188 4.211162
v -0.090035 4.621468 4.118433
v -0.090035 4.560004 4.232002
v -0.087619 0.015294 -4.118433
v -0.091035 0.102217 -4.118433
v -0.087619 0.102217 -4.279044
v -0.090035 0.040753 -4.118433
v -0.089591 0.052032 -4.211162
v -0.090035 0.102217 -4.232002
v -0.087619 0.040753 -4.232002
v -0.087619 4.646926 -4.118433
v -0.087619 4.560004 -4.279044
v -0.091035 4.560004 -4.118433
v -0.087619 4.621468 -4.232002
v -0.089591 4.610188 -4.211162
v -0.090035 4.560004 -4.232002
v -0.090035 4.621468 -4.118433
v 0.087619 0.015294 4.118433
v 0.026429 0.102216 4.190025
v 0.087619 0.102217 4.279044
v 0.090035 0.040753 4.118433
v 0.089591 0.052032 4.211162
v 0.090035 0.102217 4.232002
v 0.087619 0.040753 4.232002
v 0.087619 4.646926 4.118433
v 0.087619 4.560004 4.279044
v 0.026429 4.560004 4.190025
v 0.087619 4.621468 4.232002
v 0.089591 4.610188 4.211162
v 0.090035 4.560004 4.232002
v 0.090035 4.621468 4.118433
v 0.087619 0.015294 -4.118433
v 0.087619 0.102217 -4.279044
v 0.026429 0.102216 -4.190025
v 0.087619 0.040753 -4.232002
v 0.089591 0.052032 -4.211162
v 0.090035 0.102217 -4.232002
v 0.090035 0.040753 -4.118433
v 0.087619 4.646926 -4.118433
v 0.026429 4.560004 -4.190025
v 0.087619 4.560004 -4.279044
v 0.090035 4.621468 -4.118433
v 0.089591 4.610188 -4.211162
v 0.090035 4.560004 -4.232002
v 0.087619 4.621468 -4.232002
vn 0.0000 0.0000 1.0000
vn 0.0000 1.0000 0.0000
vn -1.0000 0.0000 0.0000
vn 0.0000 0.0000 -1.0000
vn -0.9941 -0.1068 0.0211
vn -0.9975 -0.0392 0.0580
vn -0.9999 -0.0144 0.0078
vn -0.9975 0.0392 0.0580
vn -0.9941 0.1068 0.0211
vn -0.9999 0.0144 0.0078
vn -0.9941 -0.1068 -0.0211
vn -0.9999 -0.0144 -0.0078
vn -0.9975 -0.0392 -0.0580
vn -0.9941 0.1068 -0.0211
vn -0.9975 0.0392 -0.0580
vn -0.9999 0.0144 -0.0078
vn 0.9941 -0.1068 0.0211
vn 0.6512 0.6674 -0.3612
vn 0.9975 -0.0392 0.0580
vn 0.9941 0.1068 0.0211
vn 0.9975 0.0392 0.0580
vn 0.6512 -0.6674 -0.3612
vn 0.9941 -0.1068 -0.0211
vn 0.9975 -0.0392 -0.0580
vn 0.6512 0.6674 0.3612
vn 0.9941 0.1068 -0.0211
vn 0.6512 -0.6674 0.3612
vn 0.9975 0.0392 -0.0580
vn -0.9955 -0.0945 0.0000
vn -0.9999 -0.0163 0.0000
vn -0.9987 0.0000 0.0513
vn -1.0000 0.0000 0.0088
vn -0.9955 0.0945 0.0000
vn -0.9999 0.0163 0.0000
vn -0.9987 0.0000 -0.0513
vn -1.0000 0.0000 -0.0088
vn 0.0000 -0.9758 -0.2187
vn 0.0000 -0.6078 -0.7941
vn 0.0000 0.9758 -0.2187
vn 0.0000 0.6078 -0.7941
vn 0.5508 0.0000 0.8346
vn 0.9987 0.0000 -0.0513
vn 0.9955 -0.0945 0.0000
vn 0.6949 0.7191 0.0000
vn 0.9955 0.0945 0.0000
vn 0.6949 -0.7191 0.0000
vn 0.9987 0.0000 0.0513
vn 0.5508 0.0000 -0.8346
vn 0.0000 -0.9758 0.2187
vn 0.0000 -0.6078 0.7941
vn 0.0000 0.9758 0.2187
vn 0.0000 0.6078 0.7941
vn 0.0000 -1.0000 0.0000
s off
f 31//1 37//1 8//1 2//1
f 50//2 22//2 9//2 36//2
f 3//3 10//3 24//3 16//3
f 17//4 23//4 52//4 44//4
f 1//5 4//5 5//5 7//5
f 2//6 6//6 5//6 4//6
f 3//7 7//7 5//7 6//7
f 8//8 11//8 12//8 14//8
f 9//9 13//9 12//9 11//9
f 10//10 14//10 12//10 13//10
f 15//11 18//11 19//11 21//11
f 16//12 20//12 19//12 18//12
f 17//13 21//13 19//13 20//13
f 22//14 25//14 26//14 28//14
f 23//15 27//15 26//15 25//15
f 24//16 28//16 26//16 27//16
f 29//17 32//17 33//17 35//17
f 30//18 34//18 33//18 32//18
f 31//19 35//19 33//19 34//19
f 36//20 39//20 40//20 42//20
f 37//21 41//21 40//21 39//21
f 38//22 42//22 40//22 41//22
f 43//23 46//23 47//23 49//23
f 44//24 48//24 47//24 46//24
f 45//25 49//25 47//25 48//25
f 50//26 53//26 54//26 56//26
f 51//27 55//27 54//27 53//27
f 52//28 56//28 54//28 55//28
f 15//29 1//29 7//29 18//29
f 18//30 7//30 3//30 16//30
f 2//31 8//31 14//31 6//31
f 6//32 14//32 10//32 3//32
f 9//33 22//33 28//33 13//33
f 13//34 28//34 24//34 10//34
f 23//35 17//35 20//35 27//35
f 27//36 20//36 16//36 24//36
f 43//37 15//37 21//37 46//37
f 46//38 21//38 17//38 44//38
f 22//39 50//39 56//39 25//39
f 25//40 56//40 52//40 23//40
f 51//41 45//41 48//41 55//41
f 55//42 48//42 44//42 52//42
f 29//43 43//43 49//43 32//43
f 32//44 49//44 45//44 30//44
f 50//45 36//45 42//45 53//45
f 53//46 42//46 38//46 51//46
f 37//47 31//47 34//47 41//47
f 41//48 34//48 30//48 38//48
f 1//49 29//49 35//49 4//49
f 4//50 35//50 31//50 2//50
f 36//51 9//51 11//51 39//51
f 39//52 11//52 8//52 37//52
f 15//53 43//53 29//53 1//53
o Cube.001_Cube.002
v 0.026429 0.102216 4.190025
v 0.026429 4.560004 4.190025
v 0.026429 0.102216 -4.190025
v 0.026429 4.560004 -4.190025
vn 1.0000 0.0000 0.0000
s off
f 59//54 60//54 58//54 57//54
o Cube.002_Cube.003
v -0.005038 -0.040356 1.751598
v -0.005038 0.040356 1.751598
v -0.005038 -0.040356 -1.751830
v -0.005038 0.040356 -1.751830
v 0.369129 -0.040356 1.751598
v 0.369129 0.040356 1.751598
v 0.369129 -0.040356 -1.751830
v 0.369129 0.040356 -1.751830
v 0.458863 0.112522 -1.447564
v 0.499503 0.059643 -1.447564
v 0.499503 0.059643 1.447333
v 0.458863 0.112522 1.447333
v 0.513410 0.204094 -1.160262
v 0.561975 0.181759 -1.160262
v 0.561975 0.181759 1.160030
v 0.513409 0.204094 1.160030
vn -1.0000 0.0000 0.0000
vn 0.0000 0.0000 -1.0000
vn 0.8794 0.2675 0.3938
vn 0.0000 0.0000 1.0000
vn 0.0000 -1.0000 0.0000
vn 0.0000 1.0000 0.0000
vn 0.8903 -0.4554 0.0000
vn 0.6086 -0.7935 0.0000
vn -0.6267 0.7793 0.0000
vn 0.8794 0.2675 -0.3938
vn 0.4178 0.9085 0.0000
vn -0.8591 0.5118 -0.0000
vn 0.5952 0.7060 -0.3838
vn 0.5952 0.7060 0.3838
s off
f 61//55 62//55 64//55 63//55
f 63//56 64//56 68//56 67//56
f 66//57 65//57 71//57 72//57
f 65//58 66//58 62//58 61//58
f 63//59 67//59 65//59 61//59
f 68//60 64//60 62//60 66//60
f 71//61 70//61 74//61 75//61
f 65//62 67//62 70//62 71//62
f 68//63 66//63 72//63 69//63
f 67//64 68//64 69//64 70//64
f 74//65 73//65 76//65 75//65
f 69//66 72//66 76//66 73//66
f 70//67 69//67 73//67 74//67
f 72//68 71//68 75//68 76//68
