# Blender v2.83.4 OBJ File: 'stand_export.blend'
# www.blender.org
o Cylinder.008_Cylinder.026
v 0.000000 0.359715 -0.383587
v 0.000000 0.359715 0.383587
v 0.211435 0.291015 -0.383587
v 0.211435 0.291015 0.383587
v 0.342109 0.111158 -0.383587
v 0.342109 0.111158 0.383587
v 0.342109 -0.111158 -0.383587
v 0.342109 -0.111158 0.383587
v 0.211435 -0.291015 -0.383587
v 0.211435 -0.291015 0.383587
v -0.000000 -0.359715 -0.383587
v -0.000000 -0.359715 0.383587
v -0.211435 -0.291015 -0.383587
v -0.211435 -0.291015 0.383587
v -0.342109 -0.111158 -0.383587
v -0.342109 -0.111158 0.383587
v -0.342109 0.111158 -0.383587
v -0.342109 0.111158 0.383587
v -0.211435 0.291015 -0.383587
v -0.211435 0.291015 0.383587
v 0.526026 0.724016 0.399303
v -0.000000 0.894932 0.399303
v 0.851128 0.276552 0.399303
v 0.851127 -0.276544 0.399303
v 0.526026 -0.724009 0.399303
v -0.000000 -0.894925 0.399303
v -0.526026 -0.724009 0.399303
v -0.851127 -0.276545 0.399303
v -0.851127 0.276552 0.399303
v -0.526025 0.724016 0.399303
v 0.526026 0.724016 0.887840
v -0.000000 0.894932 0.887840
v 0.851128 0.276552 0.887840
v 0.851127 -0.276544 0.887840
v 0.526026 -0.724009 0.887840
v -0.000000 -0.894925 0.887840
v -0.526026 -0.724009 0.887840
v -0.851127 -0.276545 0.887840
v -0.851127 0.276552 0.887840
v -0.526025 0.724016 0.887840
vn 0.3090 0.9511 0.0000
vn 0.8090 0.5878 0.0000
vn 1.0000 -0.0000 -0.0000
vn 0.8090 -0.5878 -0.0000
vn 0.3090 -0.9511 -0.0000
vn -0.3090 -0.9511 -0.0000
vn -0.8090 -0.5878 -0.0000
vn -1.0000 0.0000 0.0000
vn 0.0095 -0.0294 -0.9995
vn -0.8090 0.5878 0.0000
vn -0.3090 0.9511 0.0000
vn 0.0000 0.0000 -1.0000
vn 0.0250 -0.0181 -0.9995
vn 0.0095 0.0294 -0.9995
vn 0.0309 -0.0000 -0.9995
vn 0.0250 0.0181 -0.9995
vn -0.0095 0.0294 -0.9995
vn -0.0250 0.0181 -0.9995
vn -0.0309 0.0000 -0.9995
vn -0.0250 -0.0181 -0.9995
vn -0.0095 -0.0294 -0.9995
vn -0.0000 -0.0000 1.0000
s off
f 1//1 2//1 4//1 3//1
f 3//2 4//2 6//2 5//2
f 5//3 6//3 8//3 7//3
f 7//4 8//4 10//4 9//4
f 9//5 10//5 12//5 11//5
f 11//6 12//6 14//6 13//6
f 13//7 14//7 16//7 15//7
f 15//8 16//8 18//8 17//8
f 12//9 10//9 25//9 26//9
f 17//10 18//10 20//10 19//10
f 19//11 20//11 2//11 1//11
f 1//12 3//12 5//12 7//12 9//12 11//12 13//12 15//12 17//12 19//12
f 23//2 21//2 31//2 33//2
f 10//13 8//13 24//13 25//13
f 4//14 2//14 22//14 21//14
f 8//15 6//15 23//15 24//15
f 6//16 4//16 21//16 23//16
f 2//17 20//17 30//17 22//17
f 20//18 18//18 29//18 30//18
f 18//19 16//19 28//19 29//19
f 16//20 14//20 27//20 28//20
f 14//21 12//21 26//21 27//21
f 31//22 32//22 40//22 39//22 38//22 37//22 36//22 35//22 34//22 33//22
f 30//10 29//10 39//10 40//10
f 27//6 26//6 36//6 37//6
f 24//3 23//3 33//3 34//3
f 22//11 30//11 40//11 32//11
f 28//7 27//7 37//7 38//7
f 25//4 24//4 34//4 35//4
f 21//1 22//1 32//1 31//1
f 29//8 28//8 38//8 39//8
f 26//5 25//5 35//5 36//5
