# Blender v2.83.4 OBJ File: 'stand_export.blend'
# www.blender.org
o Cylinder.010_Cylinder.020
v 0.000000 -0.007643 -2.000000
v -0.618034 -0.007643 -1.902113
v -1.175570 -0.007643 -1.618034
v -1.618034 -0.007643 -1.175570
v -1.902113 -0.007643 -0.618034
v -2.000000 -0.007643 0.000000
v -1.902113 -0.007643 0.618034
v -1.618034 -0.007643 1.175570
v -1.175570 -0.007643 1.618034
v -0.618033 -0.007643 1.902113
v 0.000001 -0.007643 2.000000
v 0.618035 -0.007643 1.902113
v 1.175572 -0.007643 1.618033
v 1.618035 -0.007643 1.175569
v 1.902114 -0.007643 0.618032
v 2.000000 -0.007643 -0.000002
v 1.902112 -0.007643 -0.618036
v 1.618033 -0.007643 -1.175573
v 1.175568 -0.007643 -1.618036
v 0.618031 -0.007643 -1.902114
v -0.000000 1.708784 -1.506907
v -0.000000 0.872846 -2.000000
v -0.465660 1.708784 -1.433154
v -0.618034 0.872846 -1.902113
v -0.885738 1.708784 -1.219114
v -1.175570 0.872846 -1.618034
v -1.219114 1.708783 -0.885738
v -1.618034 0.872846 -1.175570
v -1.433154 1.708783 -0.465660
v -1.902113 0.872846 -0.618034
v -1.506907 1.708783 -0.000000
v -2.000000 0.872846 0.000000
v -1.433154 1.708783 0.465660
v -1.902113 0.872846 0.618034
v -1.219114 1.708783 0.885738
v -1.618034 0.872846 1.175570
v -0.885738 1.708784 1.219114
v -1.175570 0.872846 1.618034
v -0.465660 1.708784 1.433154
v -0.618034 0.872846 1.902113
v 0.000000 1.708784 1.506907
v 0.000001 0.872846 2.000000
v 0.465661 1.708784 1.433154
v 0.618035 0.872846 1.902113
v 0.885739 1.708784 1.219113
v 1.175571 0.872846 1.618033
v 1.219114 1.708784 0.885737
v 1.618035 0.872847 1.175569
v 1.433154 1.708784 0.465659
v 1.902114 0.872847 0.618032
v 1.506907 1.708784 -0.000002
v 2.000000 0.872847 -0.000002
v 1.433153 1.708784 -0.465662
v 1.902112 0.872847 -0.618036
v 1.219112 1.708784 -0.885740
v 1.618033 0.872847 -1.175573
v 0.885736 1.708784 -1.219115
v 1.175568 0.872846 -1.618036
v 0.465658 1.708784 -1.433155
v 0.618031 0.872846 -1.902114
vn 0.1564 0.0000 -0.9877
vn -0.7071 0.0000 -0.7071
vn -0.8910 -0.0000 -0.4540
vn -0.9877 0.0000 -0.1564
vn -0.9877 -0.0000 0.1564
vn -0.8910 0.0000 0.4540
vn -0.7071 -0.0000 0.7071
vn -0.4540 -0.0000 0.8910
vn -0.1564 -0.0000 0.9877
vn 0.1564 0.0000 0.9877
vn 0.4540 0.0000 0.8910
vn 0.7071 0.0000 0.7071
vn 0.8910 0.0000 0.4540
vn 0.9877 0.0000 0.1564
vn 0.9877 0.0000 -0.1564
vn 0.8910 0.0000 -0.4540
vn 0.7071 0.0000 -0.7071
vn 0.4540 0.0000 -0.8910
vn 0.0000 -1.0000 0.0000
vn -0.4540 -0.0000 -0.8910
vn -0.1564 -0.0000 -0.9877
vn -0.1352 0.5034 -0.8534
vn -0.3923 0.5034 -0.7699
vn -0.6110 0.5034 -0.6110
vn -0.7699 0.5034 -0.3923
vn -0.8534 0.5034 -0.1352
vn -0.8534 0.5034 0.1352
vn -0.7699 0.5034 0.3923
vn -0.6110 0.5034 0.6110
vn -0.3923 0.5034 0.7699
vn -0.1352 0.5034 0.8534
vn 0.1352 0.5034 0.8534
vn 0.3923 0.5034 0.7699
vn 0.6110 0.5034 0.6110
vn 0.7699 0.5034 0.3923
vn 0.8534 0.5034 0.1352
vn 0.8534 0.5034 -0.1352
vn 0.7699 0.5034 -0.3923
vn 0.6110 0.5034 -0.6110
vn 0.3923 0.5034 -0.7699
vn 0.1352 0.5034 -0.8534
vn -0.0000 1.0000 -0.0000
s off
f 60//1 20//1 1//1 22//1
f 26//2 3//2 4//2 28//2
f 28//3 4//3 5//3 30//3
f 30//4 5//4 6//4 32//4
f 32//5 6//5 7//5 34//5
f 34//6 7//6 8//6 36//6
f 36//7 8//7 9//7 38//7
f 38//8 9//8 10//8 40//8
f 40//9 10//9 11//9 42//9
f 42//10 11//10 12//10 44//10
f 44//11 12//11 13//11 46//11
f 46//12 13//12 14//12 48//12
f 48//13 14//13 15//13 50//13
f 50//14 15//14 16//14 52//14
f 52//15 16//15 17//15 54//15
f 54//16 17//16 18//16 56//16
f 56//17 18//17 19//17 58//17
f 58//18 19//18 20//18 60//18
f 2//19 1//19 20//19 19//19 18//19 17//19 16//19 15//19 14//19 13//19 12//19 11//19 10//19 9//19 8//19 7//19 6//19 5//19 4//19 3//19
f 24//20 2//20 3//20 26//20
f 22//21 1//21 2//21 24//21
f 22//22 24//22 23//22 21//22
f 24//23 26//23 25//23 23//23
f 26//24 28//24 27//24 25//24
f 28//25 30//25 29//25 27//25
f 30//26 32//26 31//26 29//26
f 32//27 34//27 33//27 31//27
f 34//28 36//28 35//28 33//28
f 36//29 38//29 37//29 35//29
f 38//30 40//30 39//30 37//30
f 40//31 42//31 41//31 39//31
f 42//32 44//32 43//32 41//32
f 44//33 46//33 45//33 43//33
f 46//34 48//34 47//34 45//34
f 48//35 50//35 49//35 47//35
f 50//36 52//36 51//36 49//36
f 52//37 54//37 53//37 51//37
f 54//38 56//38 55//38 53//38
f 56//39 58//39 57//39 55//39
f 58//40 60//40 59//40 57//40
f 60//41 22//41 21//41 59//41
f 21//42 23//42 25//42 27//42 29//42 31//42 33//42 35//42 37//42 39//42 41//42 43//42 45//42 47//42 49//42 51//42 53//42 55//42 57//42 59//42
