# Blender v2.83.4 OBJ File: ''
# www.blender.org
mtllib line.mtl
o Cube_Cube.001
v -0.741824 0.000000 1.000000
v -0.741824 2.000000 1.000000
v -0.741824 0.000000 -1.000000
v -0.741824 2.000000 -1.000000
v 0.741824 0.000000 1.000000
v 0.741824 2.000000 1.000000
v 0.741824 0.000000 -1.000000
v 0.741824 2.000000 -1.000000
v -0.222090 0.000000 -0.819250
v -0.222090 0.000000 0.819250
v -0.222090 2.000000 0.819250
v -0.222090 2.000000 -0.819250
v 0.222090 0.000000 0.819250
v 0.222090 0.000000 -0.819250
v 0.222090 2.000000 -0.819250
v 0.222090 2.000000 0.819250
v -0.741824 0.000000 1.000000
v -0.741824 2.000000 1.000000
v -0.741824 2.000000 -1.000000
v -0.741824 0.000000 -1.000000
v 0.741824 0.000000 -1.000000
v 0.741824 2.000000 -1.000000
v 0.741824 2.000000 1.000000
v 0.741824 0.000000 1.000000
v -0.741824 0.000000 -1.219731
v -0.741824 2.000000 -1.219731
v 0.741824 2.000000 -1.219731
v 0.741824 0.000000 -1.219731
v 0.741824 0.000000 1.219731
v 0.741824 2.000000 1.219731
v -0.741824 2.000000 1.219731
v -0.741824 0.000000 1.219731
vt 0.375000 0.166667
vt 0.625000 0.166667
vt 0.625000 0.250000
vt 0.375000 0.250000
vt 0.875000 0.500000
vt 0.625000 0.500000
vt 0.625000 0.500000
vt 0.875000 0.500000
vt 0.375000 0.666667
vt 0.625000 0.666667
vt 0.625000 0.750000
vt 0.375000 0.750000
vt 0.625000 0.750000
vt 0.375000 0.750000
vt 0.125000 0.666667
vt 0.125000 0.750000
vt 0.875000 0.666667
vt 0.875000 0.750000
vt 0.875000 0.583333
vt 0.625000 0.583333
vt 0.125000 0.500000
vt 0.375000 0.500000
vt 0.375000 0.583333
vt 0.125000 0.583333
vt 0.375000 0.000000
vt 0.625000 0.000000
vt 0.625000 0.083333
vt 0.375000 0.083333
vt 0.625000 0.250000
vt 0.375000 0.250000
vt 0.375000 0.000000
vt 0.625000 0.000000
vt 0.125000 0.750000
vt 0.375000 0.500000
vt 0.125000 0.500000
vt 0.875000 0.750000
vt 0.375000 0.250000
vt 0.625000 0.250000
vt 0.625000 0.500000
vt 0.375000 0.500000
vt 0.375000 0.750000
vt 0.625000 0.750000
vt 0.625000 1.000000
vt 0.375000 1.000000
vt 0.625000 1.000000
vt 0.375000 1.000000
vn -0.3285 0.0000 0.9445
vn 0.0000 0.0000 1.0000
vn 0.3285 0.0000 -0.9445
vn 0.0000 -1.0000 0.0000
vn 0.0000 1.0000 0.0000
vn 0.3285 0.0000 0.9445
vn 1.0000 0.0000 0.0000
vn -0.3285 0.0000 -0.9445
vn -1.0000 0.0000 0.0000
vn 0.0000 0.0000 -1.0000
usemtl None
s off
f 9/1/1 12/2/1 4/3/1 3/4/1
f 4/5/2 8/6/2 22/7/2 19/8/2
f 13/9/3 16/10/3 6/11/3 5/12/3
f 5/12/2 6/11/2 23/13/2 24/14/2
f 10/15/4 13/9/4 5/12/4 1/16/4
f 16/10/5 11/17/5 2/18/5 6/11/5
f 8/6/5 4/5/5 12/19/5 15/20/5
f 15/20/5 12/19/5 11/17/5 16/10/5
f 3/21/4 7/22/4 14/23/4 9/24/4
f 9/24/4 14/23/4 13/9/4 10/15/4
f 7/22/6 8/6/6 15/20/6 14/23/6
f 14/23/7 15/20/7 16/10/7 13/9/7
f 1/25/8 2/26/8 11/27/8 10/28/8
f 10/28/9 11/27/9 12/2/9 9/1/9
f 3/4/2 4/3/2 19/29/2 20/30/2
f 2/26/2 1/25/2 17/31/2 18/32/2
f 1/16/2 5/12/2 24/14/2 17/33/2
f 8/6/2 7/22/2 21/34/2 22/7/2
f 7/22/2 3/21/2 20/35/2 21/34/2
f 6/11/2 2/18/2 18/36/2 23/13/2
f 25/37/10 26/38/10 27/39/10 28/40/10
f 19/29/9 26/38/9 25/37/9 20/30/9
f 22/7/5 27/39/5 26/38/5 19/29/5
f 21/34/7 28/40/7 27/39/7 22/7/7
f 20/30/4 25/37/4 28/40/4 21/34/4
f 29/41/2 30/42/2 31/43/2 32/44/2
f 23/13/7 30/42/7 29/41/7 24/14/7
f 18/45/5 31/43/5 30/42/5 23/13/5
f 17/46/9 32/44/9 31/43/9 18/45/9
f 24/14/4 29/41/4 32/44/4 17/46/4
