# Blender v2.83.4 OBJ File: 'stand_export.blend'
# www.blender.org
o Cylinder.009_Cylinder.018
v -0.000000 -1.251037 -2.368966
v -0.000000 -0.740980 -2.803773
v -0.000000 1.251026 -2.368966
v -0.000000 0.740969 -2.803773
v 0.732050 -1.251037 -2.253021
v 0.866413 -0.740980 -2.666547
v 0.732050 1.251026 -2.253021
v 0.866413 0.740969 -2.666547
v 1.392443 -1.251037 -1.916533
v 1.648016 -0.740980 -2.268300
v 1.392443 1.251026 -1.916533
v 1.648016 0.740969 -2.268300
v 1.916533 -1.251037 -1.392443
v 2.268300 -0.740980 -1.648016
v 1.916533 1.251026 -1.392443
v 2.268300 0.740969 -1.648016
v 2.253021 -1.251037 -0.732050
v 2.666547 -0.740980 -0.866413
v 2.253021 1.251026 -0.732050
v 2.666547 0.740969 -0.866413
v 2.368966 -1.251037 0.000000
v 2.803773 -0.740980 0.000000
v 2.368966 1.251026 0.000000
v 2.803773 0.740969 0.000000
v 2.253020 -1.251037 0.732051
v 2.666546 -0.740980 0.866414
v 2.253020 1.251026 0.732051
v 2.666546 0.740969 0.866414
v 1.916533 -1.251037 1.392443
v 2.268300 -0.740980 1.648016
v 1.916533 1.251026 1.392444
v 2.268300 0.740969 1.648016
v 1.392443 -1.251037 1.916534
v 1.648016 -0.740980 2.268300
v 1.392443 1.251026 1.916534
v 1.648016 0.740969 2.268300
v 0.732050 -1.251037 2.253021
v 0.866413 -0.740980 2.666547
v 0.732050 1.251026 2.253021
v 0.866413 0.740969 2.666547
v -0.000001 -1.251037 2.368966
v -0.000001 -0.740980 2.803773
v -0.000001 1.251026 2.368966
v -0.000001 0.740969 2.803773
v -0.732052 -1.251037 2.253020
v -0.866415 -0.740980 2.666546
v -0.732052 1.251026 2.253020
v -0.866415 0.740969 2.666546
v -1.392444 -1.251037 1.916533
v -1.648018 -0.740980 2.268299
v -1.392444 1.251026 1.916533
v -1.648018 0.740969 2.268299
v -1.916534 -1.251037 1.392442
v -2.268301 -0.740980 1.648015
v -1.916534 1.251026 1.392442
v -2.268301 0.740969 1.648015
v -2.253021 -1.251037 0.732048
v -2.666547 -0.740980 0.866411
v -2.253021 1.251026 0.732048
v -2.666547 0.740969 0.866411
v -2.368966 -1.251037 -0.000002
v -2.803773 -0.740980 -0.000003
v -2.368966 1.251026 -0.000002
v -2.803773 0.740969 -0.000003
v -2.253020 -1.251037 -0.732053
v -2.666546 -0.740980 -0.866416
v -2.253020 1.251026 -0.732053
v -2.666546 0.740969 -0.866416
v -1.916532 -1.251037 -1.392446
v -2.268298 -0.740980 -1.648019
v -1.916532 1.251026 -1.392446
v -2.268298 0.740969 -1.648019
v -1.392441 -1.251037 -1.916535
v -1.648013 -0.740980 -2.268302
v -1.392441 1.251026 -1.916535
v -1.648013 0.740969 -2.268302
v -0.732047 -1.251037 -2.253021
v -0.866410 -0.740980 -2.666548
v -0.732047 1.251026 -2.253021
v -0.866410 0.740969 -2.666548
vn -0.1564 0.0000 -0.9877
vn 0.7071 0.0000 -0.7071
vn 0.8910 0.0000 -0.4540
vn 0.9877 0.0000 -0.1564
vn 0.9877 0.0000 0.1564
vn 0.8910 0.0000 0.4540
vn 0.7071 0.0000 0.7071
vn 0.4540 0.0000 0.8910
vn 0.1564 0.0000 0.9877
vn -0.1564 0.0000 0.9877
vn -0.4540 0.0000 0.8910
vn -0.7071 0.0000 0.7071
vn -0.8910 0.0000 0.4540
vn -0.9877 0.0000 0.1564
vn -0.9877 0.0000 -0.1564
vn -0.8910 0.0000 -0.4540
vn -0.7071 0.0000 -0.7071
vn -0.4540 0.0000 -0.8910
vn 0.4540 0.0000 -0.8910
vn 0.0000 1.0000 0.0000
vn 0.1564 0.0000 -0.9877
vn 0.1197 -0.6441 -0.7555
vn 0.1197 0.6441 -0.7555
vn 0.3473 -0.6441 -0.6816
vn 0.3473 0.6441 -0.6816
vn 0.5409 -0.6441 -0.5409
vn 0.5409 0.6441 -0.5409
vn 0.6816 -0.6441 -0.3473
vn 0.6816 0.6441 -0.3473
vn 0.7555 -0.6441 -0.1197
vn 0.7555 0.6441 -0.1197
vn 0.7555 -0.6441 0.1197
vn 0.7555 0.6441 0.1197
vn 0.6816 -0.6441 0.3473
vn 0.6816 0.6441 0.3473
vn 0.5409 -0.6441 0.5409
vn 0.5409 0.6441 0.5409
vn 0.3473 -0.6441 0.6816
vn 0.3473 0.6441 0.6816
vn 0.1197 -0.6441 0.7555
vn 0.1197 0.6441 0.7555
vn -0.1197 -0.6441 0.7555
vn -0.1197 0.6441 0.7555
vn -0.3473 -0.6441 0.6816
vn -0.3473 0.6441 0.6816
vn -0.5409 -0.6441 0.5409
vn -0.5409 0.6441 0.5409
vn -0.6816 -0.6441 0.3473
vn -0.6816 0.6441 0.3473
vn -0.7555 -0.6441 0.1197
vn -0.7555 0.6441 0.1197
vn -0.7555 -0.6441 -0.1197
vn -0.7555 0.6441 -0.1197
vn -0.6816 -0.6441 -0.3473
vn -0.6816 0.6441 -0.3473
vn -0.5409 -0.6441 -0.5409
vn -0.5409 0.6441 -0.5409
vn -0.3473 -0.6441 -0.6816
vn -0.3473 0.6441 -0.6816
vn -0.1197 -0.6441 -0.7555
vn -0.1197 0.6441 -0.7555
vn 0.0000 -1.0000 0.0000
s off
f 78//1 80//1 4//1 2//1
f 10//2 12//2 16//2 14//2
f 14//3 16//3 20//3 18//3
f 18//4 20//4 24//4 22//4
f 22//5 24//5 28//5 26//5
f 26//6 28//6 32//6 30//6
f 30//7 32//7 36//7 34//7
f 34//8 36//8 40//8 38//8
f 38//9 40//9 44//9 42//9
f 42//10 44//10 48//10 46//10
f 46//11 48//11 52//11 50//11
f 50//12 52//12 56//12 54//12
f 54//13 56//13 60//13 58//13
f 58//14 60//14 64//14 62//14
f 62//15 64//15 68//15 66//15
f 66//16 68//16 72//16 70//16
f 70//17 72//17 76//17 74//17
f 74//18 76//18 80//18 78//18
f 6//19 8//19 12//19 10//19
f 7//20 3//20 79//20 75//20 71//20 67//20 63//20 59//20 55//20 51//20 47//20 43//20 39//20 35//20 31//20 27//20 23//20 19//20 15//20 11//20
f 2//21 4//21 8//21 6//21
f 2//22 6//22 5//22 1//22
f 8//23 4//23 3//23 7//23
f 6//24 10//24 9//24 5//24
f 12//25 8//25 7//25 11//25
f 10//26 14//26 13//26 9//26
f 16//27 12//27 11//27 15//27
f 14//28 18//28 17//28 13//28
f 20//29 16//29 15//29 19//29
f 18//30 22//30 21//30 17//30
f 24//31 20//31 19//31 23//31
f 22//32 26//32 25//32 21//32
f 28//33 24//33 23//33 27//33
f 26//34 30//34 29//34 25//34
f 32//35 28//35 27//35 31//35
f 30//36 34//36 33//36 29//36
f 36//37 32//37 31//37 35//37
f 34//38 38//38 37//38 33//38
f 40//39 36//39 35//39 39//39
f 38//40 42//40 41//40 37//40
f 44//41 40//41 39//41 43//41
f 42//42 46//42 45//42 41//42
f 48//43 44//43 43//43 47//43
f 46//44 50//44 49//44 45//44
f 52//45 48//45 47//45 51//45
f 50//46 54//46 53//46 49//46
f 56//47 52//47 51//47 55//47
f 54//48 58//48 57//48 53//48
f 60//49 56//49 55//49 59//49
f 58//50 62//50 61//50 57//50
f 64//51 60//51 59//51 63//51
f 62//52 66//52 65//52 61//52
f 68//53 64//53 63//53 67//53
f 66//54 70//54 69//54 65//54
f 72//55 68//55 67//55 71//55
f 70//56 74//56 73//56 69//56
f 76//57 72//57 71//57 75//57
f 74//58 78//58 77//58 73//58
f 80//59 76//59 75//59 79//59
f 78//60 2//60 1//60 77//60
f 4//61 80//61 79//61 3//61
f 1//62 5//62 9//62 13//62 17//62 21//62 25//62 29//62 33//62 37//62 41//62 45//62 49//62 53//62 57//62 61//62 65//62 69//62 73//62 77//62
